<svg width="32.000000" height="32.000000" viewBox="0 0 32 32" fill="none" xmlns="http://www.w3.org/2000/svg" xmlns:xlink="http://www.w3.org/1999/xlink">
	<desc>
			Created with Pixso.
	</desc>
	<defs>
		<clipPath id="clip14_294">
			<rect id="color_lens" rx="-0.500000" width="31.000000" height="31.000000" transform="translate(0.500000 0.500000)" fill="white" fill-opacity="0"/>
		</clipPath>
	</defs>
	<g clip-path="url(#clip14_294)">
		<path id="Vector" d="M16 4C9.37 4 4 9.37 4 16C4 22.62 9.37 28 16 28C17.1 28 18 27.1 18 26C18 25.48 17.79 25.01 17.48 24.65C17.17 24.3 16.97 23.84 16.97 23.33C16.97 22.22 17.86 21.33 18.97 21.33L21.33 21.33C25.01 21.33 28 18.34 28 14.66C28 8.77 22.62 4 16 4ZM8.66 16C7.56 16 6.66 15.1 6.66 14C6.66 12.89 7.56 12 8.66 12C9.77 12 10.66 12.89 10.66 14C10.66 15.1 9.77 16 8.66 16ZM12.66 10.66C11.56 10.66 10.66 9.77 10.66 8.66C10.66 7.56 11.56 6.66 12.66 6.66C13.77 6.66 14.66 7.56 14.66 8.66C14.66 9.77 13.77 10.66 12.66 10.66ZM19.33 10.66C18.22 10.66 17.33 9.77 17.33 8.66C17.33 7.56 18.22 6.66 19.33 6.66C20.43 6.66 21.33 7.56 21.33 8.66C21.33 9.77 20.43 10.66 19.33 10.66ZM23.33 16C22.22 16 21.33 15.1 21.33 14C21.33 12.89 22.22 12 23.33 12C24.43 12 25.33 12.89 25.33 14C25.33 15.1 24.43 16 23.33 16Z" fill="currentColor" fill-opacity="1.000000" fill-rule="nonzero"/>
	</g>
</svg>
