<svg width="56.603271" height="32.499023" viewBox="0 0 56.6033 32.499" fill="none" xmlns="http://www.w3.org/2000/svg" xmlns:xlink="http://www.w3.org/1999/xlink">
	<desc>
			Created with Pixso.
	</desc>
	<defs/>
	<path d="M34.04 31C35.81 32 37.86 32.49 40.17 32.49L45.05 32.49C47.33 32.49 49.35 32 51.09 31Q52.17 30.36 53.04 29.53Q54.3 28.32 55.15 26.68C56.12 24.81 56.6 22.64 56.6 20.19L50.46 20.19C50.46 22.22 49.95 23.85 48.93 25.1C47.93 26.34 46.64 26.96 45.05 26.96L40.17 26.96C38.55 26.96 37.24 26.34 36.25 25.1Q36.22 25.07 36.2 25.04Q34.76 23.14 34.76 20.15L34.76 12.34Q34.76 9.43 36.17 7.6Q36.23 7.52 36.29 7.44Q36.99 6.57 37.9 6.09Q38.98 5.53 40.35 5.53L45.14 5.53Q46.5 5.53 47.56 6.1Q48.32 6.51 48.93 7.21C49.89 8.3 50.37 9.75 50.37 11.57L56.51 11.57Q56.51 8.12 55.06 5.53C54.13 3.78 52.81 2.42 51.09 1.45C49.38 0.48 47.39 0 45.14 0L40.35 0C38.01 0 35.93 0.49 34.13 1.49Q33.04 2.1 32.15 2.93Q30.86 4.12 29.97 5.76C29.01 7.58 28.53 9.68 28.53 12.07L28.53 20.42C28.53 22.81 29.01 24.93 29.97 26.77C30.94 28.59 32.29 30 34.04 31ZM16.65 0.36L0 0.36L0 32.13L6.22 32.13L6.22 22.1L16.29 22.1C18.21 22.1 19.9 21.74 21.34 21.01Q22.9 20.21 23.96 18.99Q24.41 18.47 24.77 17.88Q24.95 17.57 25.11 17.24Q25.99 15.43 25.99 13.2L25.99 8.98C25.99 7.29 25.6 5.79 24.81 4.49C24.03 3.16 22.93 2.14 21.52 1.45Q19.4 0.36 16.65 0.36ZM18.77 15.65C18.11 16.32 17.25 16.65 16.2 16.65L6.22 16.65L6.22 5.81L16.56 5.81C17.52 5.81 18.29 6.12 18.86 6.76Q19 6.9 19.11 7.05Q19.76 7.91 19.76 9.25L19.76 12.93Q19.76 14.22 19.17 15.14Q19 15.41 18.77 15.65Z" fill="#FBF503" fill-opacity="1.000000" fill-rule="evenodd"/>
</svg>
