<svg width="132.000000" height="132.000000" viewBox="0 0 132 132" fill="none" xmlns="http://www.w3.org/2000/svg" xmlns:xlink="http://www.w3.org/1999/xlink">
	<desc>
			Created with Pixso.
	</desc>
	<defs/>
	<path d="M117.36 48.46L119.4 25.26L97.74 20.11L86.4 0L66 9.17L45.6 0L34.25 20.05L12.6 25.14L14.64 48.39L0 66L14.64 83.53L12.6 106.79L34.25 111.94L45.6 132L66 122.76L86.4 131.93L97.74 111.88L119.4 106.73L117.36 83.53L132 66L117.36 48.46ZM126.78 66L113.23 49.75L113.37 48.11L115.11 28.36L95.11 23.6L84.7 5.14L66 13.56L47.28 5.14L36.87 23.54L16.88 28.24L18.76 49.69L5.2 65.99L18.76 82.24L16.88 103.7L36.88 108.46L47.28 126.84L65.99 118.37L84.71 126.79L95.11 108.39L115.11 103.64L113.23 82.24L126.78 66Z" fill="#F8F200" fill-opacity="1.000000" fill-rule="evenodd"/>
	<path d="M49.16 85.24Q47.25 85.32 45.17 87.4Q44.07 88.5 43.34 89.81Q42.6 91.11 42.26 92.26L44.24 93.08Q44.6 92.04 45.14 90.98Q45.18 90.9 45.22 90.83Q45.74 89.84 46.57 89.01Q47.69 87.89 48.86 87.82Q50.03 87.76 51.45 89.18L52.13 89.86L50.26 91.85Q47.57 94.72 47.15 96.98Q46.97 97.99 47.2 98.89Q47.5 100 48.44 100.94Q49.91 102.41 51.46 102.49Q51.74 102.51 52.02 102.48Q52.25 102.45 52.49 102.4Q54.05 102.07 55.4 100.72Q56.84 99.28 57.21 98.02Q57.58 96.75 57.39 95.08L57.47 95L59.45 96.24L60.8 94.89L53.06 87.15Q51.08 85.16 49.18 85.24Q49.17 85.24 49.16 85.24ZM61.72 71.24L59.68 73.27L60.34 83.64L54.83 78.13L52.96 80L64.33 91.37L66.19 89.5L60.43 83.73L71.33 84.36L73.49 82.2L62.33 81.56L61.72 71.24ZM88.89 74.69L90.72 72.87L85.22 67.37L83.61 68.98L73.79 59.16L71.92 61.03L81.72 70.83L75.85 76.71L66.05 66.91L64.18 68.78L75.55 80.15L84.95 70.75L88.89 74.69ZM87.03 61.33Q86.54 60.8 86.28 60.54L79.35 53.61L77.59 55.37L88.95 66.74L91.27 64.42L87.81 48.88Q88.06 49.17 88.59 49.74Q89.1 50.29 89.65 50.86Q90.19 51.42 90.53 51.76L97.23 58.46L98.96 56.73L87.6 45.36L85.31 47.65L88.75 63.26Q88.47 62.94 87.99 62.4Q87.51 61.86 87.03 61.33ZM101.13 54.56L103.29 52.4L101.71 44.95L104.46 42.2L108.98 46.71L110.85 44.84L99.48 33.47L94.39 38.57Q92.56 40.39 92.32 42.36Q92.24 42.94 92.34 43.5Q92.56 44.81 93.71 45.95Q94.7 46.95 95.75 47.23Q96.58 47.46 97.37 47.35Q97.58 47.33 97.79 47.28Q98.78 47.03 99.6 46.54L101.13 54.56ZM96.82 44.91Q96.13 44.77 95.53 44.17Q95.04 43.68 94.87 43.1Q94.75 42.72 94.77 42.29Q94.83 41.22 96.13 39.93L99.16 36.89L102.92 40.65L100.24 43.32Q98.93 44.64 97.72 44.89Q97.25 44.99 96.82 44.91ZM49.53 96.53Q49.76 95.12 51.79 92.91L53.4 91.17L54.42 92.19Q55.84 93.61 55.92 95.11Q55.94 95.36 55.92 95.6Q55.88 95.93 55.81 96.25Q55.48 97.62 54.32 98.79Q53.41 99.69 52.4 99.84Q52.38 99.84 52.37 99.84Q52.18 99.87 51.99 99.86Q51.17 99.8 50.39 99.03Q49.76 98.39 49.57 97.65Q49.44 97.12 49.53 96.53Z" fill="#F8F200" fill-opacity="1.000000" fill-rule="evenodd"/>
</svg>
